<?xml version="1.0" standalone="no"?><!DOCTYPE svg PUBLIC "-//W3C//DTD SVG 1.1//EN" "http://www.w3.org/Graphics/SVG/1.1/DTD/svg11.dtd"><svg t="1534493095603" class="icon" style="" viewBox="0 0 1024 1024" version="1.1" xmlns="http://www.w3.org/2000/svg" p-id="3367" xmlns:xlink="http://www.w3.org/1999/xlink" width="48" height="48"><defs><style type="text/css"></style></defs><path d="M227.5 109.8c-26.6-15.4-59.5-15.4-86.2 0-26.7 15.4-43.1 43.9-43.1 74.7 0 30.8 16.4 59.2 43.1 74.7 26.6 15.4 59.5 15.4 86.2 0 26.6-15.4 43.1-43.8 43.1-74.7 0-30.9-16.4-59.3-43.1-74.7zM227.5 437.3c-26.6-15.4-59.5-15.4-86.2 0-26.7 15.4-43.1 43.9-43.1 74.7 0 30.8 16.4 59.2 43.1 74.7 26.6 15.4 59.5 15.4 86.2 0 26.6-15.4 43.1-43.8 43.1-74.7 0-30.9-16.4-59.2-43.1-74.7zM227.5 764.9c-26.6-15.4-59.5-15.4-86.2 0-26.7 15.4-43.1 43.9-43.1 74.7 0 30.8 16.4 59.2 43.1 74.7 26.6 15.4 59.5 15.4 86.2 0 26.6-15.4 43.1-43.8 43.1-74.7 0-30.9-16.4-59.2-43.1-74.7z" fill="#337CEE" p-id="3368"></path><path d="M891.3 218.9H374.1c-19 0-34.5-15.5-34.5-34.5s15.5-34.5 34.5-34.5h517.2c19 0 34.5 15.5 34.5 34.5s-15.5 34.5-34.5 34.5zM891.3 546.5H374.1c-19 0-34.5-15.5-34.5-34.5s15.5-34.5 34.5-34.5h517.2c19 0 34.5 15.5 34.5 34.5s-15.5 34.5-34.5 34.5zM891.3 874.1H374.1c-19 0-34.5-15.5-34.5-34.5s15.5-34.5 34.5-34.5h517.2c19 0 34.5 15.5 34.5 34.5 0 18.9-15.5 34.5-34.5 34.5z" fill="#3FA9F5" p-id="3369"></path></svg>