<?xml version="1.0" standalone="no"?><!DOCTYPE svg PUBLIC "-//W3C//DTD SVG 1.1//EN" "http://www.w3.org/Graphics/SVG/1.1/DTD/svg11.dtd"><svg t="1556525634922" class="icon" style="" viewBox="0 0 1024 1024" version="1.1" xmlns="http://www.w3.org/2000/svg" p-id="8394" xmlns:xlink="http://www.w3.org/1999/xlink" width="200" height="200"><defs><style type="text/css"></style></defs><path d="M857.14773333 743.1968c-6.65173333 0-12.05226667 5.39946667-12.05226667 12.07573333l0 24.12693333c0 6.65173333 5.40053333 12.05226667 12.05226667 12.05226667 6.66346667 0 12.064-5.39946667 12.064-12.05226667l0-24.12693333C869.21173333 748.59733333 863.8112 743.1968 857.14773333 743.1968zM858.3296 815.74186666c-6.5824-1.20533333-12.81706667 3.19786667-13.99893334 9.7344-4.11413333 22.992-24.08106667 39.67893333-47.4784 39.67893334l-95.89653333 0c-6.65173333 0-12.05226667 5.37706667-12.05226667 12.05226666s5.39946667 12.05226667 12.05226667 12.05226667l95.89653333 0c35.09013333 0 65.04746667-25.0304 71.22346667-59.51893333C869.24586666 823.18186666 864.88853333 816.92373333 858.3296 815.74186666zM818.27946666 97.22346666l-72.336 0L745.94346666 48.41173333c0-13.30346667-10.80106667-24.10453333-24.12693333-24.10453333-13.3152 0-24.11626667 10.80106667-24.11626667 24.10453333l0 48.81066667L335.8912 97.2224l0-48.81066667c0-13.30346667-10.80106667-24.10453333-24.12693334-24.10453333-13.3152 0-24.11626667 10.80106667-24.11626666 24.10453333l0 48.81066667-72.3712 0c-79.79946667 0-144.71893333 64.91946667-144.71893334 144.71893333l0 603.00266667c0 79.82186667 64.91946667 144.71893333 144.71893334 144.71893333l603.00266666 0c79.79946667 0 144.71893333-64.89706667 144.71893334-144.71893333L962.9984 241.94133333C962.9984 162.14293333 898.07893333 97.22346666 818.27946666 97.22346666zM215.2768 145.47946666l72.37013333 0 0 23.5488c0 13.32693333 10.80106667 24.12693333 24.11626667 24.12693334 13.32693333 0 24.12693333-10.80106667 24.12693333-24.12693334l0-23.5488 361.808 0 0 23.5488c0 13.32693333 10.80106667 24.12693333 24.11626667 24.12693334 13.32693333 0 24.12693333-10.80106667 24.12693333-24.12693334l0-23.5488 72.336 0c53.19253333 0 96.47573333 43.27253333 96.47573333 96.464l0 94.30826667-795.9648 0 0-94.30826667C118.78933333 188.74986666 162.0736 145.47946666 215.2768 145.47946666zM818.27946666 941.43253333L215.2768 941.43253333c-53.2032 0-96.4864-43.27146667-96.4864-96.4864l0-484.5664 795.9648 0 0 484.5664C914.7552 898.16106666 871.47093333 941.43253333 818.27946666 941.43253333zM549.70453333 451.31093333c4.1024-2.56213333 10.7776-2.9472 20.016-1.1552 9.74933333 2.56853333 15.78133333 6.2912 18.09066667 11.16266667 2.56213333 5.90613333 2.56213333 12.83413333 0 20.78506666-9.23733333 26.6912-23.61173333 56.7136-43.10933334 90.06933334l79.29173334-9.6224c-6.15893333-14.368-10.39253333-23.6064-12.70186667-27.71306667-3.08053333-6.15786667-3.08053333-11.6736 0-16.55146667 3.07946667-5.3888 7.69813333-9.74933333 13.856-13.08693333 5.89973333-3.07946667 11.6736-4.48746667 17.32053333-4.23466667 6.15893333 0.77013333 10.7776 3.98186667 13.85706667 9.6224 7.69813333 14.3744 13.98293333 27.46133333 18.8608 39.2608 5.3888 13.088 12.05866667 31.56266667 20.016 55.4272 2.0512 6.67626667 1.02186667 12.06506667-3.07946667 16.1664-4.36693333 5.13493333-9.75573333 8.60053333-16.1664 10.39253334-6.67626667 1.7984-12.70186667 1.92426667-18.09066666 0.384-5.90613333-1.5392-9.75573333-5.51466667-11.54773334-11.9328-1.2864-3.84853333-2.4416-7.44-3.46346666-10.7776l-133.94986667 18.47573333c-6.41706667 1.5392-12.44906667 1.7984-18.09066667 0.77013333-7.1872-1.79306667-12.44906667-5.77386667-15.78133333-11.9328-1.02826667-1.28106667-1.67146667-2.3104-1.92426667-3.08053333-1.28746667 6.15893333-2.44266667 12.31786667-3.46453333 18.47573333-5.64693333 25.66293333-14.62613333 51.71093333-26.944 78.1376-1.5392 3.07946667-3.07946667 5.90506667-4.61866667 8.4672l27.71306667 16.93653334c5.6416 3.84853333 8.336 8.60053333 8.0832 14.24213333 0 6.928-1.92533333 13.2128-5.77386667 18.8608-4.10773333 5.6416-8.60053333 9.6224-13.472 11.9328-5.64693333 2.82133333-11.29493333 2.30933333-16.93546666-1.5392l-25.7888-16.1664c-3.5968 4.61866667-7.06133333 9.2384-10.39253334 13.85706667-14.62613333 17.4464-29.3856 32.3328-44.26453333 44.64853333-5.3888 4.1024-11.16266667 5.2576-17.3216 3.46453333-5.64693333-2.0576-10.5248-5.77386667-14.62613333-11.16266666-4.61866667-5.90613333-7.31306667-12.06506667-8.0832-18.47573334-0.77013333-6.41706667 1.66613333-11.67893333 7.31306666-15.78133333 17.44746667-14.62613333 32.45866667-28.8672 45.03466667-42.72533333l-26.17386667-16.55146667c-11.0368-9.23733333-18.09066667-17.83253333-21.17013333-25.7888-2.82666667-8.20906667-2.18346667-17.44746667 1.92426667-27.71413333 7.1808-15.13706667 15.90826667-43.87946667 26.17386666-86.21973334 1.5392-8.20906667 3.07946667-15.9072 4.61866667-23.0944l-16.93546667 0c-6.928 0-12.06506667-2.69333333-15.39626666-8.0832-3.07946667-4.61866667-4.61866667-10.39146667-4.61866667-17.32053333 0-7.1808 1.66613333-13.47093333 5.00373333-18.8608 3.07946667-5.13066667 8.0832-7.69813333 15.0112-7.69813333l25.01973334 0c2.0512-15.64906667 3.20533333-30.02346667 3.46453333-43.1104 1.28106667-6.66986667 4.7456-10.90346667 10.39253333-12.70186667 6.15893333-1.792 12.70186667-2.17706667 19.63093334-1.1552 6.66986667 1.5392 12.05866667 4.36693333 16.1664 8.46826667 4.36053333 4.61866667 5.77386667 10.13973333 4.2336 16.55146666-0.77013333 8.7264-2.05653333 19.37813333-3.84853334 31.94773334l37.7216 0c12.5696 0.77013333 20.91093333 4.36586667 25.01973334 10.7776 4.61866667 7.44533333 6.15786667 17.83893333 4.61866666 31.1776-0.77013333 11.54666667-1.67146667 22.4576-2.6944 32.71786666 30.0224-42.08213333 50.80853333-80.5728 62.3552-115.47413333C541.87413333 458.37226666 545.08586666 453.87946666 549.70453333 451.31093333zM400.3584 576.0224c-10.5248 41.82933333-18.608 70.4384-24.2496 85.83573333-1.02826667 5.3888-1.41333333 9.6224-1.1552 12.70186667 0.77013333 3.07946667 3.97546667 6.67626667 9.6224 10.7776l14.62613333 9.2384c1.02186667-2.3104 2.0512-4.36053333 3.07946667-6.15893334 8.46826667-17.4464 15.13813333-36.69226667 20.016-57.73653333 5.13066667-21.80693333 8.4672-44.0064 10.00746666-66.58986667-0.25813333-2.30933333-0.9024-3.97546667-1.92426666-5.00373333-1.5392-1.02186667-4.2336-1.5392-8.0832-1.5392l-18.47573334 0C402.53546666 563.4528 401.38133333 569.61173333 400.3584 576.0224zM682.8832 664.55253333l0 134.33386667c0 12.5696-6.29013333 18.8608-18.8608 18.8608L503.51466666 817.7472c-12.576 0-18.8608-6.29013333-18.8608-18.8608L484.65386666 664.55253333c0-12.5696 6.2848-18.8608 18.8608-18.8608l160.50773334 0C676.59306666 645.69173333 682.8832 651.98186666 682.8832 664.55253333zM540.8512 697.65546666c-2.8256 0.25813333-4.2336 1.67146667-4.2336 4.2336l0 59.66186667c0.25173333 2.82133333 1.66613333 4.23466667 4.2336 4.23466667l85.83573333 0c2.82133333-0.25813333 4.23466667-1.67146667 4.23466667-4.23466667l0-59.66186667c-0.25813333-2.82133333-1.67146667-4.2336-4.23466667-4.2336L540.8512 697.65546666z" p-id="8395" fill="#1296db"></path></svg>