<?xml version="1.0" standalone="no"?><!DOCTYPE svg PUBLIC "-//W3C//DTD SVG 1.1//EN" "http://www.w3.org/Graphics/SVG/1.1/DTD/svg11.dtd"><svg t="1534741004516" class="icon" style="" viewBox="0 0 1024 1024" version="1.1" xmlns="http://www.w3.org/2000/svg" p-id="4010" xmlns:xlink="http://www.w3.org/1999/xlink" width="48" height="48"><defs><style type="text/css"></style></defs><path d="M518.17980958 678.8548584c-53.14636231 0-103.82080078-19.77539063-142.13562013-54.38232423l24.71923828-27.1911621c32.13500977 29.66308594 71.68579102 44.49462891 117.41638185 44.4946289 43.258667 0 82.80944825-14.83154297 117.41638183-44.4946289l24.71923828 28.42712402c-42.02270508 34.60693359-90.22521973 53.14636231-142.13562012 53.14636231z" fill="#30D4EF" p-id="4011"></path><path d="M295.70666503 901.32800293c-12.35961914 0-22.24731445-2.47192383-33.37097167-7.41577149-25.9552002-12.35961914-13.59558106-45.73059083-1.23596191-77.86560058 3.70788575-11.12365723 11.12365723-28.42712403 12.35961914-37.07885742C178.2902832 707.28198242 122.67199707 602.22521973 122.67199707 490.98864746 122.67199707 288.29089355 296.94262695 122.67199707 512 122.67199707s389.32800293 165.61889648 389.32800293 368.3166504S730.76525879 851.88952637 512 851.88952637c-43.258667 0-86.51733398 14.83154297-126.06811523 28.42712402-33.37097168 11.12365723-63.03405762 21.01135254-90.22521974 21.01135253z m-9.8876953-38.31481934c21.01135254 4.94384766 54.38232422-6.17980958 88.9892578-18.53942871 40.78674317-13.59558106 87.7532959-29.66308594 137.19177247-29.66308594 197.75390625 0 352.24914551-142.13562012 352.24914551-323.82202147C864.24914551 308.06628417 706.04602051 159.75085449 512 159.75085449S159.75085449 308.06628417 159.75085449 490.98864746c0 101.34887695 50.67443848 196.51794434 140.89965821 260.78796387 21.01135254 14.83154297 9.88769531 43.258667-3.70788575 77.86560059-3.70788575 9.88769531-9.88769531 24.71923828-11.12365723 33.37097167z" fill="#30D4EF" p-id="4012"></path></svg>