<?xml version="1.0" standalone="no"?><!DOCTYPE svg PUBLIC "-//W3C//DTD SVG 1.1//EN" "http://www.w3.org/Graphics/SVG/1.1/DTD/svg11.dtd"><svg t="1534742057307" class="icon" style="" viewBox="0 0 1024 1024" version="1.1" xmlns="http://www.w3.org/2000/svg" p-id="6185" xmlns:xlink="http://www.w3.org/1999/xlink" width="48" height="48"><defs><style type="text/css"></style></defs><path d="M796.71296 547.79904c-8.704 0-16.896-3.072-23.552-9.728l-483.328-477.184c-13.312-12.8-13.312-34.304-0.512-47.616 12.8-13.312 34.304-13.312 47.616-0.512l483.328 477.184c13.312 12.8 13.312 34.304 0.512 47.616-6.656 6.656-15.36 10.24-24.064 10.24z" fill="#1296db" p-id="6186"></path><path d="M313.38496 1020.88704c-8.704 0-17.408-3.584-24.064-10.24-12.8-13.312-12.8-34.304 0.512-47.616l483.328-472.576c13.312-12.8 34.304-12.8 47.616 0.512 12.8 13.312 12.8 34.304-0.512 47.616l-483.328 472.576c-6.656 6.144-15.36 9.728-23.552 9.728z" fill="#1296db" p-id="6187"></path></svg>