<?xml version="1.0" standalone="no"?><!DOCTYPE svg PUBLIC "-//W3C//DTD SVG 1.1//EN" "http://www.w3.org/Graphics/SVG/1.1/DTD/svg11.dtd"><svg t="1534741018143" class="icon" style="" viewBox="0 0 1024 1024" version="1.1" xmlns="http://www.w3.org/2000/svg" p-id="4774" xmlns:xlink="http://www.w3.org/1999/xlink" width="48" height="48"><defs><style type="text/css"></style></defs><path d="M604.20468281 977.01444153h-184.19974372c-20.68676381 0-38.1798821-15.19550237-40.69534037-35.35615659l-15.99699627-111.54329259c-22.15000405-9.90153273-43.57249821-22.34318393-63.9140022-37.10300387l-105.71088327 42.44629618a41.66535282 41.66535282 0 0 1-14.25015125 2.49079694c-15.10918827 0-28.87433216-7.9738368-35.9932416-20.81829091l-92.2252345-159.55894386c-9.83165838-18.01922787-5.52414322-40.12812857 10.24268175-52.56567012l89.15900529-69.72175132c-1.4673499-13.81446656-2.16197803-25.77933312-2.16197802-37.06190052 0-11.2702373 0.69462813-23.23099307 2.16197802-37.04957042l-89.09324174-69.66420707c-16.12441373-12.74169799-20.39493746-35.57399893-10.00017806-53.1657637l91.91696726-159.01639339a40.72000171 40.72000171 0 0 1 35.6233216-21.02380202c5.15011243 0 10.20979997 0.95768235 15.03931392 2.8483857l105.39439558 42.33531961c21.33617891-15.27359715 42.35998094-27.50562759 63.80713643-37.13177486l16.04220928-111.88855125c2.47024526-19.823616 19.96336355-35.02322915 40.65012736-35.02322916h184.19974372c20.68265301 0 38.18399289 15.19961315 40.69534037 35.34793728l16.0093275 111.55151303c22.15411371 9.90564238 43.57249821 22.33907427 63.90578176 37.09889309l105.71088328-42.44629618a41.5379365 41.5379365 0 0 1 14.2542609-2.49079694c15.10918827 0 28.87433216 7.96972715 35.9932416 20.8224017l92.23345494 159.5671643c9.81932829 18.00278699 5.51592277 40.10757803-10.23857096 52.55744968l-89.15900643 69.72175018c1.15497301 10.80167197 2.15375758 23.5392603 2.15375872 37.04957042 0 13.52264135-0.99878457 26.26022855-2.15375872 37.06601131l89.08502243 69.66420707c15.83258738 12.49097501 20.13599289 34.59576605 10.31666461 52.61499392l-0.221952 0.39458134-92.0115018 159.16847218a40.70356082 40.70356082 0 0 1-35.61921195 21.01558158h-0.00411078a41.06114958 41.06114958 0 0 1-15.04753437-2.84427606l-105.39439559-42.32709916c-21.32795847 15.26948637-42.3517605 27.50562759-63.79891598 37.13588452l-16.04631894 111.8844416c-2.47435605 19.823616-19.97569479 35.0191195-40.6583478 35.01911836z m-299.22028658-225.62670364l8.2697728 6.36262854c23.15289827 17.80549518 47.92111559 32.17484345 73.61824427 42.70524075l9.67546993 3.97047695 18.98101988 132.38624483c0.2836059 2.22774158 2.19075015 3.6663205 4.47603598 3.6663205h184.19974372c2.28939549 0 4.19653973-1.43857891 4.43493262-3.33750272l19.03856299-132.71095183 9.67136028-3.97047808c24.73944519-10.13581597 48.87468829-24.15168398 73.78676395-42.8408775l8.22455978-6.17355834 124.21511738 49.8858041c0.41924267 0.16440889 1.00289536 0.27538546 1.57832646 0.27538432a4.09378475 4.09378475 0 0 0 3.6663205-2.19896946l0.221952-0.39458248 91.95395982-159.07804728c1.16319346-2.25651371 0.79738425-4.91993998-0.8754779-6.24343154l-105.26286848-82.31137052 1.28650013-10.27967318c2.15375758-17.29993842 3.07855815-30.11973006 3.07855929-42.87375929 0-12.74169799-0.92480057-25.56149077-3.07855929-42.86553884l-1.28650013-10.27556352 105.32863204-82.35658354c1.62764914-1.29061091 1.99345949-3.89649408 0.813824-6.18588843l-92.18413113-159.48084906c-1.11798158-2.05922304-3.90060373-2.31405682-5.63100899-1.76328704l-123.9561728 49.77893831-8.2697728-6.3585189c-23.13645739-17.80138553-47.9046747-32.16662301-73.60591304-42.70112995l-9.67136028-3.9663673-18.99335111-132.38624483c-0.27949511-2.22774158-2.19075015-3.66221085-4.48014564-3.66221085h-184.19974371c-2.28939549 0-4.19653973 1.43035847-4.43082297 3.33339307l-19.02623175 132.71506261-9.67547108 3.9663673c-24.73122475 10.13581597-48.87057749 24.14757319-73.79909404 42.83676785l-8.22455979 6.16944754-124.21100658-49.88580295a4.48425529 4.48425529 0 0 0-1.57010603-0.27538546 4.09378475 4.09378475 0 0 0-3.66632163 2.20308025l-0.221952 0.39869213-92.10603747 159.3411015a4.48836608 4.48836608 0 0 0 1.03166748 5.98859776l105.25875769 82.30315008-1.28650127 10.27967432c-2.10443491 16.79849017-3.08266894 30.41977685-3.08266894 42.8573184 0 12.44576199 0.97823403 26.06704867 3.08266894 42.8696485l1.28650127 10.27967317-105.33274169 82.36891363c-1.63586958 1.29472057-1.99345949 3.89649408-0.80971548 6.18588957l92.17591182 159.47262862c1.11798158 2.06333269 3.89238329 2.32227726 5.63100786 1.77150749l123.95206314-49.7953792z" fill="#3C96D3" p-id="4775"></path><path d="M517.21998563 678.87925475c-96.69715854 0-175.37097955-78.66971136-175.37097955-175.3668699S420.52282709 328.14551495 517.21998563 328.14551495s175.3668699 78.66971136 175.36686991 175.3709807-78.66971136 175.36275911-175.36686991 175.3627591z m0-313.68416938c-76.26933931 0-138.31729949 62.04796018-138.31729948 138.31729948 0 76.2734501 62.04796018 138.31729949 138.31729948 138.31729949 76.2734501 0 138.31729949-62.04796018 138.31729949-138.31729949S593.49343573 365.19508537 517.21998563 365.19508537z" fill="#3C96D3" p-id="4776"></path></svg>