<?xml version="1.0" standalone="no"?><!DOCTYPE svg PUBLIC "-//W3C//DTD SVG 1.1//EN" "http://www.w3.org/Graphics/SVG/1.1/DTD/svg11.dtd"><svg t="1534736934495" class="icon" style="" viewBox="0 0 1024 1024" version="1.1" xmlns="http://www.w3.org/2000/svg" p-id="2589" xmlns:xlink="http://www.w3.org/1999/xlink" width="48" height="48"><defs><style type="text/css"></style></defs><path d="M673.976 0C598.56 34.806 408.11 10.358 362.19 56.279c-65.285 65.285-59.034 180.757-68.316 268.943-104.494-15.452 12.37 161.311 43.387 190.464 37.621 37.714 71.05 60.688 65.817 119.583-10.875 122.368-227.753 118.446-299.479 192.865-132.541 137.677 276.992 191.954 383.16 195.764 75.505 2.703 533.422-49.68 449.542-174.828-78.685-117.391-321.915-109.082-324.24-206.95-1.444-59.505 39.742-92.959 75.894-134.093 32.471-33.823 142.628-201.667 44.636-188.687C757.007 181.105 685.368 127.375 673.976 0z" p-id="2590" fill="#ffffff"></path></svg>