<?xml version="1.0" standalone="no"?><!DOCTYPE svg PUBLIC "-//W3C//DTD SVG 1.1//EN" "http://www.w3.org/Graphics/SVG/1.1/DTD/svg11.dtd"><svg t="1558053820395" class="icon" style="" viewBox="0 0 1024 1024" version="1.1" xmlns="http://www.w3.org/2000/svg" p-id="9789" xmlns:xlink="http://www.w3.org/1999/xlink" width="200" height="200"><defs><style type="text/css"></style></defs><path d="M932.295 452.71c-7.119 1.497-13.871 1.881-20.994 1.497 36.921 161.54-49.28 326.841-201.647 390.168 10.305 14.623 15.928 32.239 15.928 50.987 0 5.795-0.365 11.245-1.497 16.484 192.647-73.094 301.146-279.98 251.675-480.13-11.802 10.497-26.597 17.808-43.465 20.994zM898.559 418.609c7.484 0.192 14.239-0.192 20.994-1.497 16.868-3.377 31.855-10.689 43.657-21.186 23.047-20.418 35.428-52.273 29.61-84.896-9.192-49.471-57.167-82.075-106.443-73.075-48.918 9.365-81.887 56.591-72.906 106.062 8.252 42.737 44.041 72.52 85.088 74.592z m-42.16-94.068c0-3.186 2.437-5.623 5.623-5.623h32.031v-32.623c0-3.186 3.009-5.623 6.195-5.623h9.748c3.186 0 5.623 2.437 5.623 5.623v32.623h32.604c3.185 0 5.795 2.437 5.795 5.623v9.729c0 3.377-2.61 5.623-5.795 5.623h-32.604v32.431c0 3.186-2.437 5.815-5.623 5.815h-9.748c-3.186 0-6.195-2.629-6.195-5.815v-32.431h-32.031c-3.185 0-5.623-2.245-5.623-5.623v-9.729z" p-id="9790"></path><path d="M593.46 763.432c41.047 0 78.16 16.868 104.393 44.405 23.795-13.682 62.405-36.537 94.644-66.147-19.497-79.082-77.22-114.123-153.308-129.877-84.704-17.424-160.788-20.802-130.798-134.175 41.22-29.802 50.223-91.632 100.996-111.877 3.569-31.107 2.073-50.22 0-82.075-3.182-11.994-23.795-6.755-26.594-18.557-2.441-63.538 21.547-156.474-21.937-186.276-7.119-4.874-14.431-6.179-21.742-6.179-8.232 0-15.736 1.497-24.352 1.497-5.623 0-11.629-0.94-17.252-3.013-24.16-9.173-25.484-41.604-52.081-44.789h-22.487C385.461 51.68 340.48 47.554 302.43 58.416c-2.057 0.384-4.302 0.748-6.547 1.497-22.126 7.695-36.173 20.629-44.616 38.61-12.915 24.179-14.987 56.783-14.987 94.088-0.557 21.358 0.384 44.962 0.384 68.776-19.497 10.305-27 31.471-27.749 53.405-0.748 12.742 1.497 25.849 4.874 37.094 6.947 20.245 25.868 25.868 41.051 44.981 18.553 22.299 31.103 52.849 47.591 69.717 5.811 6.179 12.182 10.497 20.05 12.186v73.267c-5.239 8.616-12.55 15.371-20.05 21.742-69.702 58.471-211.189 32.987-256.17 120.128-13.874 26.789-10.132 61.83-18.748 104.374V810.658h0.384c3.934 50.968 85.069 95.201 202.395 118.421 0.368-0.365 1.113-0.748 1.689-1.113 54.346 10.497 115.983 16.484 181.574 16.484 13.51 0 27-0.365 40.107-0.748-2.61-11.802-4.49-23.987-4.49-36.173-0.001-79.639 64.65-144.097 144.288-144.097z" p-id="9791"></path><path d="M590.101 789.28c-63.15 0-113.949 50.604-113.949 113.757 0 9.557 1.132 19.497 3.377 28.305 13.126 49.088 57.339 85.452 110.572 85.452 62.214 0 113.374-50.968 113.374-113.757 0-6.928-0.745-13.682-2.073-20.418-9.364-53.04-55.842-93.339-111.301-93.339z m59.585 124.063c0 4.126-3.374 7.119-7.119 7.119H602.46v40.299c0 3.934-3.185 6.928-7.119 6.928h-12.547c-3.573 0-7.123-2.994-7.123-6.928v-40.299h-39.55c-4.49 0-7.484-2.994-7.484-7.119v-12.186c0-3.934 2.994-7.292 7.484-7.292h39.55v-39.742c0-4.126 3.55-7.119 7.123-7.119h12.547c3.934 0 7.119 2.994 7.119 7.119v39.742h40.107c3.745 0 7.119 3.358 7.119 7.292v12.186z" p-id="9792"></path></svg>