<?xml version="1.0" standalone="no"?><!DOCTYPE svg PUBLIC "-//W3C//DTD SVG 1.1//EN" "http://www.w3.org/Graphics/SVG/1.1/DTD/svg11.dtd"><svg t="1512554828020" class="icon" style="" viewBox="0 0 1024 1024" version="1.1" xmlns="http://www.w3.org/2000/svg" p-id="1873" xmlns:xlink="http://www.w3.org/1999/xlink" width="200" height="200"><defs><style type="text/css"></style></defs><path d="M699.399087 384.131751l-62.483076 0-15.620769-31.240515c-11.044544-18.172895-13.987572-31.241538-31.241538-31.241538L433.843966 321.649698c-17.252943 0-20.194948 13.06762-31.240515 31.240515l-15.620769 31.241538-62.482053 0c-17.254989 0-31.242562 13.987572-31.242562 31.240515l0 249.932306c0 17.257036 13.988596 31.244608 31.242562 31.244608l374.897436 0c17.254989 0 31.241538-13.987572 31.241538-31.244608l0.001023 0 0-249.932306C730.640626 398.119323 716.653053 384.131751 699.399087 384.131751L699.399087 384.131751zM511.949858 665.304572c-69.01791 0-124.967176-55.949266-124.967176-124.966153 0-69.013817 55.949266-124.967176 124.967176-124.967176 69.016887 0 124.967176 55.95336 124.966153 124.967176C636.914988 609.357352 580.964698 665.304572 511.949858 665.304572L511.949858 665.304572z" p-id="1874" fill="#26b6ff"></path><path d="M511.949858 540.340465M418.225243 540.340465" p-id="1875" fill="#26b6ff"></path><path d="M511.949858 62.388932C265.23892 62.388932 65.239863 262.389012 65.239863 509.098927s199.998033 446.708971 446.709995 446.708971c246.709915 0 446.709995-199.999057 446.709995-446.708971S758.660796 62.388932 511.949858 62.388932L511.949858 62.388932zM761.881141 665.303548c0 34.511002-27.974122 62.485123-62.482053 62.485123l-374.898459 0c-34.507932 0-62.483076-27.974122-62.483076-62.485123L262.017552 415.372266c0-34.506908 27.975145-62.482053 62.483076-62.482053l46.861284 0 15.620769-31.240515c8.283664-16.335037 13.988596-31.241538 31.241538-31.241538l187.450253 0c17.253966 0 22.037922 13.06455 31.241538 31.241538l15.620769 31.240515 46.862307 0c34.506908 0 62.482053 27.976168 62.482053 62.482053L761.881141 665.303548 761.881141 665.303548z" p-id="1876" fill="#26b6ff"></path></svg>