<?xml version="1.0" standalone="no"?><!DOCTYPE svg PUBLIC "-//W3C//DTD SVG 1.1//EN" "http://www.w3.org/Graphics/SVG/1.1/DTD/svg11.dtd"><svg t="1512376508685" class="icon" style="" viewBox="0 0 1024 1024" version="1.1" xmlns="http://www.w3.org/2000/svg" p-id="11179" xmlns:xlink="http://www.w3.org/1999/xlink" width="200" height="200"><defs><style type="text/css"></style></defs><path d="M831.94733 63.980069c34.882588 0 63.260304 28.252757 63.260304 62.979396V512.667282l63.97907-0.390872V126.959465c0-70.117061-56.967363-126.958466-127.239374-126.958465H191.71778c-70.27301 0-127.239374 56.841404-127.239374 126.958465V897.041534c0 70.117061 56.967363 126.958466 127.239374 126.958466h320.114275v-63.979069H191.71778c-34.882588 0-63.260304-28.252757-63.260305-62.979397V126.959465c0-34.726639 28.378716-62.979396 63.260305-62.979396h640.22955" fill="#26b6ff" p-id="11180"></path><path d="M777.746062 637.126565c43.123892 0 83.666629 16.793506 114.160652 47.28653 30.493024 30.493024 47.28653 71.03676 47.28653 114.160653s-16.793506 83.666629-47.28653 114.160652C861.41369 943.227425 820.869954 960.020931 777.746062 960.020931s-83.666629-16.793506-114.160653-47.286531c-30.493024-30.493024-47.28653-71.03676-47.28653-114.160652s16.793506-83.666629 47.28653-114.160653C694.079433 653.920071 734.62217 637.126565 777.746062 637.126565m0-63.979069c-124.49927 0-225.426252 100.926982-225.426253 225.426252s100.926982 225.426252 225.426253 225.426252 225.426252-100.926982 225.426252-225.426252S902.245332 573.147496 777.746062 573.147496z" fill="#26b6ff" p-id="11181"></path><path d="M746.423309 685.110867h63.979069v142.453397h-63.979069z" fill="#26b6ff" p-id="11182"></path><path d="M746.423309 763.585194H888.876705v63.97907H746.423309zM768.065229 224.431578c0 17.88115-14.495258 32.376408-32.376408 32.376408H288.31018c-17.88115 0-32.376408-14.495258-32.376408-32.376408s14.495258-32.376408 32.376408-32.376409h447.378641c17.88115 0.001 32.376408 14.496258 32.376408 32.376409zM576.091033 480.772716c0 17.88115-14.495258 32.376408-32.376408 32.376408H287.310507c-17.88115 0-32.376408-14.495258-32.376408-32.376408s14.495258-32.376408 32.376408-32.376408h256.404118c17.88115 0.001 32.376408 14.496258 32.376408 32.376408zM447.509098 736.3641c0 17.88115-14.495258 32.376408-32.376408 32.376408H288.31018c-17.88115 0-32.376408-14.495258-32.376408-32.376408s14.495258-32.376408 32.376408-32.376408h126.82251c17.88115 0 32.376408 14.495258 32.376408 32.376408z" fill="#26b6ff" p-id="11183"></path></svg>