<?xml version="1.0" standalone="no"?><!DOCTYPE svg PUBLIC "-//W3C//DTD SVG 1.1//EN" "http://www.w3.org/Graphics/SVG/1.1/DTD/svg11.dtd"><svg t="1512367695974" class="icon" style="" viewBox="0 0 1024 1024" version="1.1" xmlns="http://www.w3.org/2000/svg" p-id="6279" xmlns:xlink="http://www.w3.org/1999/xlink" width="200" height="200"><defs><style type="text/css"></style></defs><path d="M848.896 1003.52l-698.368 0c-45.2608 0-81.92-36.6592-81.92-81.92l0-821.248c0-45.2608 36.6592-81.92 81.92-81.92l698.368 0c45.2608 0 81.92 36.6592 81.92 81.92l0 821.248C930.816 966.8608 894.1568 1003.52 848.896 1003.52zM150.528 59.392c-22.528 0-40.96 18.432-40.96 40.96l0 821.248c0 22.528 18.432 40.96 40.96 40.96l698.368 0c22.528 0 40.96-18.432 40.96-40.96l0-821.248c0-22.528-18.432-40.96-40.96-40.96L150.528 59.392z" p-id="6280" fill="#8e8e93"></path><path d="M550.912 613.376 194.56 613.376c-6.7584 0-12.288 5.5296-12.288 12.288s5.5296 12.288 12.288 12.288l356.352 0c6.7584 0 12.288-5.5296 12.288-12.288S557.6704 613.376 550.912 613.376z" p-id="6281" fill="#8e8e93"></path><path d="M755.712 777.216 194.56 777.216c-6.7584 0-12.288 5.5296-12.288 12.288s5.5296 12.288 12.288 12.288l561.152 0c6.7584 0 12.288-5.5296 12.288-12.288S762.4704 777.216 755.712 777.216z" p-id="6282" fill="#8e8e93"></path><path d="M215.04 498.688 200.9088 478.6176 402.2272 336.4864 449.3312 400.1792 662.528 244.9408 676.864 265.0112 444.0064 434.3808 396.9024 370.4832Z" p-id="6283" fill="#8e8e93"></path><path d="M714.752 326.656 768 163.4304 599.4496 211.3536Z" p-id="6284" fill="#8e8e93"></path></svg>